<svg xmlns="http://www.w3.org/2000/svg" width="100" height="100" viewBox="0 0 100 100" fill="none" stroke="currentColor" stroke-width="1.6" stroke-linecap="round" stroke-linejoin="round" role="img" aria-label="Ants">
  <title>Ants</title>
  <path d="M47 29 C43 21 40 17 34 14 M46 44 L39 41 L33 35 M46 48 L36 48 L22 59 M45 54 L38 60 L34 73"/><g transform="translate(100 0) scale(-1 1)"><path d="M47 29 C43 21 40 17 34 14 M46 44 L39 41 L33 35 M46 48 L36 48 L22 59 M45 54 L38 60 L34 73"/></g><ellipse cx="50" cy="34" rx="5" ry="6"/><ellipse cx="50" cy="47" rx="5" ry="7"/><path d="M50 54 C36 56 41 74 50 81 C59 74 64 56 50 54 Z"/>
</svg>
