<svg xmlns="http://www.w3.org/2000/svg" width="100" height="100" viewBox="0 0 100 100" fill="none" stroke="currentColor" stroke-width="1.6" stroke-linecap="round" stroke-linejoin="round" role="img" aria-label="Spiders">
  <title>Spiders</title>
  <path d="M44 46 C30 40 29 24 32 13 M44 47 C32 44 23 36 19 27 M44 49 H31 C25 49 22 53 17 59 M45 50 C36 58 32 68 31 79"/><g transform="translate(100 0) scale(-1 1)"><path d="M44 46 C30 40 29 24 32 13 M44 47 C32 44 23 36 19 27 M44 49 H31 C25 49 22 53 17 59 M45 50 C36 58 32 68 31 79"/></g><ellipse cx="50" cy="42" rx="6" ry="8"/><path d="M50 50 C32 57 44 75 50 78 C56 75 68 57 50 50 Z"/>
</svg>
